<svg width="207" height="40" viewBox="0 0 207 40" fill="none" xmlns="http://www.w3.org/2000/svg">
<path fill-rule="evenodd" clip-rule="evenodd" d="M12.935 36.1229C12.8021 36.1217 12.6713 36.09 12.5526 36.0304C12.4338 35.9708 12.3303 35.8847 12.25 35.7789C12.0219 35.4756 11.8678 35.1233 11.8 34.7499C11.6916 34.2746 11.6081 33.7939 11.55 33.3099C11.4809 32.6866 11.4455 32.06 11.444 31.4329C11.4234 30.0549 11.4281 28.6767 11.458 27.2989C11.476 26.4529 11.484 25.7929 11.484 25.3169V9.56489C11.484 8.78889 11.489 8.19889 11.498 7.79389C11.507 7.38889 11.538 6.93089 11.589 6.41989C11.619 6.03989 11.685 5.66389 11.788 5.29689C11.888 5.01389 12.021 4.74389 12.183 4.49089C12.333 4.22589 12.551 4.00689 12.816 3.85689C13.124 3.70289 13.441 3.56689 13.765 3.44689C14.1825 3.29171 14.6152 3.18109 15.056 3.11689C15.6303 3.03305 16.2064 2.96237 16.784 2.90489V1.44989L16.334 0.999894H0.41199L-0.0100098 1.44989V2.69189C2.66199 2.85089 4.15599 3.60889 4.47199 4.96489C4.65599 6.10989 4.74399 7.26789 4.73599 8.42689V32.5539C4.7802 33.8071 4.72704 35.0619 4.57699 36.3069C4.50399 36.5009 4.39699 36.6789 4.26099 36.8349C4.05736 37.0784 3.84211 37.3121 3.61599 37.5349C3.43684 37.708 3.26534 37.8888 3.10199 38.0769V39.0019C16.689 39.0019 25.099 39.0899 28.332 39.2669L29.467 35.4349L28.755 34.9319C23.505 35.5929 18.225 35.9899 12.936 36.1219H12.935V36.1229ZM38.191 25.0769C38.1394 25.0913 38.0865 25.1001 38.033 25.1029C37.77 25.1029 37.638 25.0069 37.638 24.8129C37.639 23.9369 37.705 23.0619 37.836 22.1959C37.984 21.2519 38.231 20.3259 38.574 19.4349C38.9045 18.5315 39.3578 17.6778 39.921 16.8979C40.5179 16.1045 41.2931 15.4626 42.1839 15.0242C43.0747 14.5857 44.0562 14.363 45.049 14.3739C45.7654 14.3341 46.4799 14.4814 47.1223 14.8012C47.7647 15.121 48.3128 15.6023 48.713 16.1979C49.5441 17.4297 49.977 18.8871 49.953 20.3729C49.9495 20.6453 49.8629 20.9101 49.705 21.132C49.547 21.3539 49.3252 21.5224 49.069 21.6149C47.6253 22.1967 46.1511 22.6997 44.653 23.1219C42.5459 23.7419 40.4458 24.3853 38.353 25.0519C38.2982 25.0542 38.2439 25.0626 38.191 25.0769ZM53.851 33.3219C50.686 35.2419 47.953 36.2019 45.653 36.2019C44.0948 36.2357 42.5649 35.7831 41.276 34.9069C40.077 34.1023 39.1236 32.9821 38.521 31.6699C37.9277 30.354 37.6264 28.9253 37.638 27.4819C49.133 23.9059 54.933 22.1169 55.038 22.1169C55.4945 22.0235 55.9024 21.7696 56.1877 21.4011C56.473 21.0327 56.6168 20.5742 56.593 20.1089C56.6243 18.8116 56.3201 17.5282 55.71 16.3829C55.1528 15.3585 54.3282 14.5045 53.324 13.9119C52.3108 13.3172 51.2128 12.8805 50.068 12.6169C48.8262 12.3357 47.5562 12.1982 46.283 12.2069C43.999 12.1715 41.7339 12.6267 39.641 13.5419C37.7956 14.339 36.1651 15.5617 34.883 17.1099C33.6742 18.6069 32.7413 20.3071 32.128 22.1309C31.492 24.0075 31.171 25.9764 31.178 27.9579C31.178 32.0279 32.278 35.0759 34.474 37.1019C36.46 38.9519 39.264 39.8759 42.884 39.8759C44.9596 39.8546 47.0026 39.3575 48.856 38.4229C51.0879 37.3113 53.2259 36.0204 55.249 34.5629L54.672 33.5349L53.852 33.3219H53.851ZM89.36 5.45689C88.6536 3.61168 87.2663 2.10772 85.484 1.25489C83.2762 0.326042 80.8914 -0.106812 78.498 -0.0131064C76.7514 -0.0231252 75.0106 0.189931 73.318 0.620894C71.7435 1.0218 70.2404 1.66372 68.862 2.52389C67.5118 3.37504 66.4077 4.56436 65.659 5.97389C64.8463 7.51566 64.4379 9.23837 64.472 10.9809C64.4711 12.2282 64.7742 13.457 65.355 14.5609C65.9098 15.6534 66.6606 16.6347 67.57 17.4559C68.548 18.3185 69.5874 19.1089 70.68 19.8209C71.7766 20.5516 72.9123 21.2219 74.082 21.8289C75.1816 22.3941 76.2631 22.9937 77.325 23.6269C78.205 24.1249 79.031 24.7139 79.79 25.3839C81.74 27.1989 82.716 28.9249 82.716 30.5639C82.7124 31.4345 82.5304 32.2951 82.1813 33.0927C81.8321 33.8902 81.3232 34.6077 80.686 35.2009C80.0534 35.852 79.2946 36.3672 78.456 36.7149C77.6174 37.0626 76.7167 37.2354 75.809 37.2229C74.7476 37.2534 73.6933 37.0406 72.7269 36.6009C71.7604 36.1611 70.9073 35.5061 70.233 34.6859C68.8337 33.0835 68.0696 31.0242 68.085 28.8969L67.058 28.5269L61.812 34.4199C63.0109 36.1551 64.6364 37.5522 66.532 38.4769C68.4594 39.4225 70.5802 39.9069 72.727 39.8919C74.6858 39.882 76.6321 39.5787 78.501 38.9919C80.3805 38.4261 82.1727 37.6033 83.827 36.5469C85.3996 35.5426 86.7351 34.2085 87.741 32.6369C88.7269 31.1425 89.2539 29.3922 89.257 27.6019C89.2649 26.6411 89.0954 25.6871 88.757 24.7879C88.4439 23.9528 88.0085 23.1689 87.465 22.4619C86.8251 21.677 86.0848 20.9796 85.263 20.3879C84.3651 19.7107 83.4274 19.088 82.455 18.5229C81.2911 17.8597 80.1135 17.2209 78.923 16.6069C78.0929 16.2045 77.2752 15.777 76.471 15.3249C75.7105 14.8804 74.9704 14.402 74.253 13.8909C73.5175 13.3867 72.8453 12.7958 72.251 12.1309C71.7287 11.5104 71.302 10.8154 70.985 10.0689C70.6331 9.26505 70.4536 8.39638 70.458 7.51889C70.4418 6.80124 70.5697 6.08763 70.8342 5.42031C71.0988 4.75299 71.4945 4.14553 71.998 3.63389C72.5301 3.10204 73.1669 2.68653 73.868 2.41369C74.5692 2.14085 75.3193 2.01662 76.071 2.04889C77.0021 2.00868 77.9305 2.17494 78.7897 2.53576C79.649 2.89657 80.4178 3.44301 81.041 4.13589C82.2897 5.5492 83.0762 7.31068 83.295 9.18389L84.218 9.47389L89.36 5.45689ZM114.998 15.5919C114.527 14.7671 113.845 14.0829 113.021 13.6099C112.206 13.1441 111.326 12.8014 110.411 12.5929C109.429 12.3751 108.425 12.2687 107.419 12.2759C105.5 12.2489 103.592 12.5759 101.79 13.2409C100.244 13.8022 98.8278 14.6695 97.625 15.7909C96.5072 16.8738 95.5802 18.1375 94.883 19.5289C94.1663 20.9286 93.6387 22.4173 93.314 23.9559C92.9937 25.5121 92.8348 27.0971 92.84 28.6859C92.834 30.0359 93.025 31.3799 93.406 32.6739C93.776 33.9269 94.351 35.1099 95.106 36.1759C95.9021 37.2754 96.9699 38.1496 98.205 38.7129C99.623 39.3609 101.168 39.6819 102.726 39.6509C107.665 39.6509 112.305 37.4749 116.646 33.1239L116.119 32.3569L115.46 32.1989C112.244 34.6829 109.273 35.9249 106.549 35.9249C105.529 35.9413 104.521 35.71 103.61 35.2509C102.784 34.841 102.066 34.2442 101.511 33.5079C100.96 32.751 100.512 31.9245 100.179 31.0499C99.8329 30.1766 99.5811 29.2687 99.428 28.3419C99.288 27.4679 99.218 26.5839 99.217 25.6989C99.223 24.5739 99.32 23.4519 99.507 22.3429C99.714 21.1079 100.023 19.8929 100.43 18.7089C100.8 17.5518 101.442 16.5003 102.302 15.6429C102.681 15.2592 103.132 14.9551 103.63 14.7487C104.129 14.5423 104.663 14.4376 105.202 14.4409C105.922 14.4012 106.64 14.5632 107.273 14.9088C107.906 15.2543 108.431 15.7697 108.787 16.3969C109.602 17.8656 110.003 19.5281 109.947 21.2069L110.87 21.5769L115.853 18.6179C115.812 17.5557 115.519 16.5185 114.998 15.5919ZM124.661 23.4539C124.795 22.4159 125.029 21.3939 125.36 20.4019C125.663 19.4369 126.093 18.5179 126.638 17.6669C127.162 16.8786 127.861 16.2227 128.682 15.7509C129.567 15.2401 130.574 14.9798 131.595 14.9979C132.703 14.9697 133.796 15.2583 134.745 15.8299C135.627 16.3792 136.336 17.1673 136.788 18.1029C137.265 19.0699 137.61 20.0959 137.815 21.1549C138.032 22.2949 138.139 23.4549 138.132 24.6169C138.132 25.6739 138.123 26.5549 138.105 27.2589C138.077 28.107 138.016 28.9536 137.921 29.7969C137.843 30.6269 137.698 31.4479 137.486 32.2539C137.279 32.9639 137.01 33.6539 136.682 34.3159C136.38 34.9712 135.944 35.5561 135.403 36.0329C134.844 36.4894 134.211 36.8469 133.531 37.0899C132.707 37.3848 131.836 37.5281 130.961 37.5129C129.997 37.5247 129.053 37.2383 128.258 36.6929C127.483 36.1734 126.838 35.4818 126.374 34.6719C125.887 33.8003 125.506 32.8733 125.24 31.9109C124.96 30.9638 124.757 29.9957 124.633 29.0159C124.531 28.1697 124.478 27.3182 124.475 26.4659C124.474 25.459 124.537 24.4531 124.661 23.4539ZM121.392 37.1169C123.307 38.8609 126.348 39.7329 130.514 39.7329C132.054 39.7429 133.59 39.5659 135.088 39.2039C136.497 38.8536 137.84 38.2782 139.066 37.4999C140.298 36.7226 141.375 35.7233 142.243 34.5529C143.192 33.2258 143.897 31.7402 144.326 30.1659C144.858 28.2567 145.115 26.2816 145.091 24.2999C145.142 22.7043 144.846 21.1167 144.222 19.6473C143.598 18.1778 142.662 16.8615 141.479 15.7899C139.281 13.8179 136.091 12.8309 131.909 12.8309C127.726 12.8309 124.281 14.1259 121.574 16.7159C120.245 17.972 119.196 19.4946 118.497 21.1842C117.797 22.8737 117.462 24.692 117.514 26.5199C117.514 31.2419 118.805 34.7739 121.389 37.1169H121.392ZM162.65 16.1869C164.056 16.1869 165.058 16.4689 165.656 17.0329C166.213 17.7129 166.565 18.5389 166.67 19.4129C166.891 20.4429 167.028 21.4909 167.079 22.5439C167.114 23.4689 167.132 24.6629 167.132 26.1249C167.131 28.0233 167.118 29.9217 167.093 31.8199C167.084 32.3919 167.088 33.0659 167.105 33.8419C167.11 34.4199 167.145 34.9979 167.211 35.5719C167.264 35.9519 167.334 36.3659 167.422 36.8139C167.483 37.1899 167.608 37.5509 167.791 37.8839C167.949 38.1489 168.143 38.3899 168.369 38.5989C169.16 39.3166 170.201 39.6957 171.268 39.6549C172.587 39.6549 174.098 38.9849 175.803 37.6469C177.226 36.4635 178.581 35.2015 179.863 33.8669L179.257 32.9669H178.624C177.593 33.7941 176.332 34.2833 175.013 34.3679C174.734 34.3839 174.454 34.343 174.191 34.2476C173.928 34.1522 173.687 34.0043 173.483 33.8129C173.301 33.669 173.145 33.4952 173.021 33.2989C172.876 32.9532 172.783 32.5879 172.745 32.2149C172.644 31.4573 172.6 30.6931 172.613 29.9289C172.613 29.3479 172.644 28.4089 172.705 27.1149C172.754 26.1949 172.785 25.2741 172.798 24.3529V22.7669C172.815 21.0579 172.811 19.8739 172.785 19.2119C172.732 18.3087 172.631 17.4091 172.481 16.5169C172.415 15.6757 172.134 14.8656 171.664 14.1649C171.2 13.6614 170.645 13.2494 170.029 12.9499C169.192 12.545 168.269 12.3497 167.34 12.3809C164.247 12.3809 160.661 13.6499 156.584 16.1869L155.951 15.9489C155.917 14.9772 155.601 14.0363 155.042 13.2409C154.523 12.5609 153.631 12.2229 152.366 12.2229C151.608 12.2324 150.856 12.3617 150.138 12.6059C149.303 12.8859 148.506 13.2679 147.764 13.7419C146.964 14.2449 146.27 14.7119 145.681 15.1429C145.092 15.5739 144.411 16.0979 143.638 16.7149L144.613 18.0099C144.792 17.8939 144.973 17.7796 145.154 17.6669C145.461 17.4729 145.729 17.3149 145.958 17.1909C146.186 17.0679 146.459 16.9229 146.775 16.7549C147.058 16.6009 147.354 16.4719 147.659 16.3689C147.892 16.2889 148.136 16.2439 148.383 16.2369C148.688 16.2299 148.989 16.3069 149.253 16.4619C149.521 16.6389 149.723 16.8989 149.831 17.2019C149.963 17.5219 150.077 17.8469 150.173 18.1789C150.281 18.6259 150.343 19.0819 150.358 19.5409C150.394 20.1409 150.415 20.6249 150.422 20.9939C150.43 21.3629 150.434 21.9179 150.435 22.6589V23.1089C150.435 24.8349 150.303 30.1199 150.04 38.9639L150.699 39.3339L156.631 37.6159C156.455 36.8589 156.323 34.4719 156.235 30.4559C156.148 26.5275 156.105 22.5983 156.107 18.6689C159.165 17.0129 161.344 16.1849 162.645 16.1849L162.65 16.1869ZM188.223 25.1969C188.172 25.2122 188.119 25.2216 188.065 25.2249C187.802 25.2249 187.67 25.1279 187.669 24.9349C187.67 24.0579 187.736 23.1839 187.868 22.3179C188.016 21.3739 188.263 20.4479 188.605 19.5559C188.936 18.6529 189.388 17.7989 189.95 17.0189C190.547 16.2253 191.322 15.5832 192.213 15.1447C193.104 14.7063 194.085 14.4836 195.078 14.4949C195.794 14.455 196.509 14.6022 197.151 14.922C197.794 15.2418 198.342 15.7232 198.742 16.3189C199.573 17.5506 200.006 19.0081 199.981 20.4939C199.977 20.766 199.891 21.0306 199.733 21.2524C199.575 21.4742 199.354 21.6428 199.098 21.7359C197.655 22.3174 196.181 22.8204 194.683 23.2429C192.576 23.8628 190.475 24.5062 188.382 25.1729C188.329 25.1758 188.276 25.1842 188.224 25.1979H188.223V25.1969ZM203.883 33.4429C200.718 35.3639 197.985 36.3239 195.684 36.3229C194.126 36.3565 192.596 35.9042 191.307 35.0289C190.108 34.224 189.155 33.1039 188.553 31.7919C187.959 30.4755 187.658 29.046 187.669 27.6019C199.164 24.0269 204.964 22.2389 205.07 22.2389C205.526 22.1451 205.934 21.8909 206.22 21.5224C206.505 21.1538 206.649 20.6953 206.625 20.2299C206.656 18.9326 206.352 17.6492 205.742 16.5039C205.185 15.4795 204.36 14.6256 203.356 14.0329C202.343 13.4384 201.245 13.0018 200.1 12.7379C198.858 12.4566 197.588 12.3191 196.314 12.3279C194.031 12.2927 191.766 12.7479 189.674 13.6629C187.829 14.4599 186.198 15.6826 184.916 17.2309C183.707 18.7277 182.774 20.4279 182.161 22.2519C181.525 24.1284 181.204 26.0975 181.212 28.0789C181.212 32.1489 182.31 35.1959 184.507 37.2229C186.493 39.0729 189.296 39.9969 192.917 39.9969C194.993 39.9755 197.036 39.4785 198.889 38.5439C201.121 37.4321 203.259 36.1415 205.282 34.6849L204.705 33.6559L203.883 33.4429Z" fill="#9C9C9C"/>
</svg>
