<svg width="196" height="32" viewBox="0 0 196 32" fill="none" xmlns="http://www.w3.org/2000/svg">
<path d="M21.644 31.9551C20.4706 31.9866 19.3082 31.7221 18.264 31.1861C17.2254 30.6538 16.3395 29.8657 15.69 28.8961C13.6449 30.7746 10.9953 31.8596 8.22 31.9551C3.233 31.9551 0.53 28.4911 1.443 23.5251C2.137 19.7911 5.242 16.0491 6.11 13.0451C4.43 12.0371 1.936 11.3351 0.767 13.3951L0 12.9361C0.612 10.6781 2.091 9.17609 4.228 9.17609C6.365 9.17609 7.945 10.4261 9.982 9.27509H11.607C10.74 13.7731 8.548 17.3711 7.379 23.6691C6.667 27.5291 7.991 29.2831 10.229 29.2831C11.8822 29.0798 13.403 28.2758 14.502 27.0241C13.6095 24.8277 13.1596 22.4768 13.178 20.1061C13.178 14.6361 15.726 8.87009 20 8.87009C22.192 8.87009 23.817 10.3721 23.817 13.9351C23.817 17.4971 21.626 23.0121 18.831 26.4751C18.982 27.3001 19.421 28.0471 20.071 28.5881C20.721 29.1281 21.542 29.4281 22.393 29.4361C26.466 29.4361 29.315 23.4161 29.315 17.8481C29.315 12.2801 26.868 12.5311 27.078 10.6511C27.0969 10.4162 27.162 10.1873 27.2696 9.97756C27.3772 9.76786 27.5252 9.58147 27.705 9.42909C28.069 9.11909 28.543 8.96409 29.023 8.99609C30.293 8.99609 31.963 10.5791 31.963 17.0031C31.963 25.1891 27.543 31.9551 21.643 31.9551H21.644ZM20.722 11.6951C19.452 11.6951 18.228 16.3101 18.073 21.0781C18.0137 22.0977 18.0321 23.1203 18.128 24.1371C20.0432 21.0182 21.2119 17.499 21.543 13.8541C21.534 12.2341 21.233 11.6941 20.721 11.6941L20.722 11.6951ZM40.329 31.7481C39.7964 31.8023 39.2584 31.7406 38.752 31.5671C38.2475 31.3947 37.7868 31.1141 37.402 30.7451C37.0197 30.3781 36.7233 29.9311 36.534 29.4361C36.3451 28.9432 36.2686 28.4143 36.31 27.8881C36.31 25.6841 39.215 14.6991 39.215 12.8911C39.215 12.0371 39.014 11.5331 38.247 11.5331C37.3912 11.6704 36.5942 12.0548 35.954 12.6391V11.0831C37.2835 9.87703 38.9997 9.18488 40.794 9.13109C41.3299 9.08342 41.8698 9.15164 42.377 9.33109C42.883 9.51109 43.343 9.79609 43.726 10.1691C44.108 10.5411 44.404 10.9911 44.592 11.4891C44.779 11.9851 44.855 12.5161 44.812 13.0441C44.812 15.2481 41.909 26.1881 41.909 27.9871C41.909 28.8421 42.109 29.3461 42.877 29.3461C43.7212 29.2057 44.5126 28.8422 45.169 28.2931V29.7951C43.8445 31.0093 42.1253 31.7031 40.329 31.7481ZM43.89 -0.000910822C44.288 -0.0129108 44.684 0.0590892 45.051 0.213089C45.417 0.367089 45.746 0.597089 46.012 0.888089C46.279 1.17687 46.4787 1.52128 46.5967 1.89651C46.7146 2.27175 46.7478 2.66846 46.694 3.05809C46.5958 3.88999 46.1972 4.6574 45.573 5.21609C44.9435 5.77989 44.1329 6.09953 43.288 6.11709C42.8905 6.12968 42.4949 6.0567 42.128 5.90309C41.7623 5.75031 41.4341 5.52002 41.166 5.22809C40.899 4.93931 40.6993 4.5949 40.5813 4.21967C40.4634 3.84443 40.4302 3.44772 40.484 3.05809C40.5823 2.22621 40.9809 1.45884 41.605 0.900089C42.2347 0.336729 43.0453 0.01746 43.89 8.91648e-05V-0.000910822ZM55.196 27.0341C54.941 28.3921 55.096 29.3371 56.064 29.3371C56.9112 29.2067 57.7051 28.8419 58.356 28.2841L58.447 29.7951C57.1176 31.0015 55.4014 31.694 53.607 31.7481C50.447 31.7481 49.224 29.4901 49.69 26.6831L52.795 9.27509C53.827 3.46309 53.47 2.69809 50.31 2.69809L50.511 1.29509L60.036 0.0530891L55.196 27.0331V27.0341ZM81.982 26.9881C81.726 28.3471 81.826 29.3461 82.849 29.3461C83.6981 29.1874 84.4896 28.8053 85.142 28.2391V29.7951C83.8212 31.0151 82.0996 31.7097 80.302 31.7481C79.3927 31.814 78.4912 31.5412 77.771 30.9821C77.0565 30.4285 76.5772 29.6257 76.429 28.7341C75.6625 29.7326 74.6786 30.5434 73.552 31.1051C72.4197 31.6705 71.1745 31.9733 69.909 31.9911C63.854 31.9911 61.306 26.7281 62.475 20.4031C63.644 14.0791 69.095 8.91509 75.26 8.91509C76.7175 8.88456 78.1591 9.22159 79.452 9.89509L79.607 9.09509C80.813 2.90509 80.256 2.69809 77.096 2.69809L77.251 1.29509L86.821 0.0530891L81.981 26.9891L81.982 26.9881ZM75.415 11.1821C71.899 11.1821 69.562 15.2931 68.639 20.3581C67.671 25.6751 68.283 29.3551 71.589 29.3551C73.826 29.3551 76.374 26.6551 77.141 22.5351L79.023 12.1001C77.9348 11.4506 76.6813 11.1317 75.415 11.1821ZM98.073 31.9991C90.995 31.9991 89.059 26.9791 89.927 22.1661L92.237 9.27509C93.306 3.45509 92.95 2.65309 89.79 2.65309L89.99 1.25009L99.543 0.0530891L97.607 10.9841C99.1008 9.708 100.986 8.98112 102.95 8.92409C109.114 8.92409 112.009 14.0881 110.895 20.4121C109.781 26.7371 104.11 32.0001 98.073 32.0001V31.9991ZM101.379 11.3081C100.352 11.3282 99.3576 11.6687 98.534 12.2821C97.7166 12.8907 97.1139 13.7434 96.813 14.7171L95.388 22.8141C94.52 27.6271 96.256 29.5881 98.448 29.5881C101.653 29.5881 103.644 26.0801 104.712 20.3131C105.662 15.1491 104.795 11.3351 101.37 11.3351L101.379 11.3081ZM120.548 23.3271C120.548 27.1871 122.429 29.2471 126.027 29.2471C127.854 29.2471 130.511 27.9971 132.192 26.3411L132.904 27.9421C131.693 29.2051 130.242 30.2141 128.637 30.9101C127.025 31.6089 125.291 31.9821 123.534 32.0081C118.192 32.0081 114.575 28.0951 114.575 22.7781C114.575 14.9061 121.196 8.93309 127.562 8.93309C131.434 8.93309 133.616 11.0381 133.616 13.4941C133.571 17.3081 129.9 21.5911 120.548 23.3271ZM127.114 11.2361C124.21 11.2361 121.416 15.4011 120.648 21.3661C126.502 19.9621 128.995 16.0491 129.05 13.5391C129.041 12.1361 128.374 11.2361 127.105 11.2361H127.114ZM154.393 31.7481C153.484 31.8139 152.582 31.5411 151.862 30.9821C151.148 30.4284 150.669 29.6256 150.521 28.7341C149.783 29.7322 148.822 30.5446 147.715 31.1071C146.603 31.6731 145.376 31.9753 144.128 31.9901C138.174 31.9901 135.626 26.7281 136.822 20.4031C138.018 14.0791 143.379 8.92309 149.562 8.92309C150.872 8.91646 152.17 9.17392 153.379 9.68009H159.187L156.073 26.9881C155.817 28.3471 155.918 29.3461 156.941 29.3461C157.79 29.1872 158.581 28.8051 159.233 28.2391V29.7951C157.912 31.015 156.191 31.7096 154.393 31.7481ZM149.708 11.1821C146.292 11.1821 143.9 15.2931 142.986 20.3581C142.018 25.6751 142.685 29.3551 145.726 29.3551C148.064 29.3551 150.566 26.5481 151.279 22.5351L153.16 12.1001C152.133 11.4506 150.931 11.1303 149.717 11.1821H149.708ZM177.005 14.8431C175.626 14.8431 175.269 13.7911 174.868 12.6841C174.731 12.1245 174.402 11.6306 173.939 11.2881C173.472 10.9427 172.9 10.7686 172.32 10.7951C171.566 10.7552 170.824 10.9952 170.237 11.4691C169.654 11.9382 169.27 12.6099 169.16 13.3501C169.005 14.7091 170.027 15.8601 171.963 17.5151L174.557 19.6201C175.521 20.3379 176.269 21.3064 176.721 22.4201C177.17 23.5301 177.303 24.7401 177.105 25.9181C176.447 29.6781 173.288 31.9901 169.059 31.9901C163.963 31.9901 160.712 29.0301 161.068 27.0241C161.151 26.4971 161.421 26.0141 161.831 25.6661C162.241 25.3161 162.764 25.1221 163.306 25.1171C164.63 25.1171 165.132 26.1161 165.543 27.4201C165.807 28.1701 166.314 28.8121 166.986 29.2481C167.66 29.6844 168.459 29.8891 169.26 29.8311C170.052 29.8686 170.829 29.613 171.444 29.1131C172.053 28.6174 172.454 27.9106 172.566 27.1331C172.767 25.3331 171.653 24.2271 169.562 22.3641L167.014 20.1601C166.118 19.4868 165.418 18.5869 164.986 17.5531C164.556 16.5244 164.411 15.3991 164.566 14.2951C165.023 11.8841 167.306 8.89709 172.557 8.89709C176.63 8.89709 179.178 11.1551 178.95 12.9631C178.924 13.4618 178.71 13.932 178.35 14.2781C177.99 14.6261 177.509 14.8281 177.005 14.8431ZM195.644 11.6951H190.703L188.311 25.0271C187.799 27.7891 188.21 29.0401 189.735 29.0401C190.548 29.0401 191.826 28.5901 193.653 26.7371L193.753 28.6891C192.923 29.6568 191.895 30.4344 190.738 30.9691C189.576 31.5068 188.312 31.7905 187.032 31.8011C183.571 31.8011 181.836 29.3911 182.658 24.9281L185.05 11.6951H181.187L181.489 9.63509H185.388L186.411 3.67009H192.11L191.041 9.63409H195.982L195.644 11.6941V11.6951Z" fill="#9C9C9C"/>
</svg>
